<svg width="19" height="17" viewBox="0 0 19 17" fill="none" xmlns="http://www.w3.org/2000/svg">
<path d="M18.0422 13.327C17.8582 13.7564 17.0802 14.0719 15.6632 14.2919C15.5903 14.3903 15.5298 14.8105 15.4334 15.1379C15.376 15.3345 15.2348 15.4512 15.005 15.4512L14.9945 15.451C14.6627 15.451 14.3163 15.2983 13.6223 15.2983C12.6857 15.2983 12.3628 15.5117 11.6356 16.0255C10.8645 16.5707 10.125 17.0413 9.02107 16.9931C7.9034 17.0756 6.97174 16.396 6.4474 16.0253C5.71582 15.5081 5.39393 15.2984 4.46108 15.2984C3.79484 15.2984 3.37554 15.4651 3.0889 15.4651C2.80377 15.4651 2.69288 15.2912 2.65018 15.1458C2.55471 14.8212 2.49463 14.3948 2.4198 14.2935C1.68945 14.1802 0.0425334 13.8929 0.000575461 13.1581C-0.00995511 12.9669 0.125159 12.7984 0.314095 12.7671C2.77164 12.3626 3.87854 9.83922 3.92456 9.7321C3.92717 9.72588 3.93003 9.71995 3.93293 9.71391C4.06407 9.44771 4.09341 9.22479 4.01992 9.05159C3.84156 8.63144 3.07085 8.4807 2.74659 8.35243C1.90903 8.02164 1.79248 7.64154 1.84203 7.38104C1.9281 6.92769 2.60931 6.64871 3.0076 6.83526C3.3226 6.98293 3.60246 7.05766 3.83923 7.05766C4.0166 7.05766 4.12926 7.01514 4.191 6.98099C4.11884 5.71179 3.94021 3.89806 4.39185 2.88518C5.58465 0.210955 8.11283 0.00314328 8.85879 0.00314328C8.89213 0.00314328 9.18163 0 9.21585 0C11.0576 0 12.8273 0.945821 13.6915 2.88348C14.1427 3.89535 13.9652 5.70159 13.8926 6.98071C13.9485 7.01151 14.0465 7.0493 14.1963 7.05625C14.4222 7.04615 14.6842 6.97188 14.9757 6.83527C15.1907 6.73475 15.4845 6.74835 15.6991 6.83732L15.7001 6.83767C16.0348 6.95722 16.2454 7.19844 16.2507 7.4688C16.2572 7.81305 15.9497 8.11036 15.3367 8.3524C15.2619 8.38188 15.1709 8.41085 15.0741 8.44157C14.7281 8.55127 14.2053 8.71723 14.0635 9.05155C13.99 9.22475 14.0191 9.44751 14.1504 9.7137C14.1534 9.71963 14.1562 9.72578 14.1588 9.73189C14.2047 9.8389 15.3107 12.3617 17.7694 12.7669C17.9964 12.8043 18.1636 13.0451 18.0422 13.327Z" fill="#7F6F8A"/>
</svg>
