<svg width="18" height="18" viewBox="0 0 18 18" fill="none" xmlns="http://www.w3.org/2000/svg">
<path d="M4.02911 18H0.297321V5.98232H4.02911V18ZM2.16121 4.343C0.967903 4.343 0 3.35458 0 2.16125C0 0.967626 0.967605 0 2.16121 0C3.35481 0 4.32242 0.967626 4.32242 2.16125C4.32242 3.35458 3.35411 4.343 2.16121 4.343ZM17.996 18H14.2722V12.1499C14.2722 10.7556 14.2441 8.96766 12.332 8.96766C10.3918 8.96766 10.0945 10.4824 10.0945 12.0494V18H6.3667V5.98232H9.94582V7.62165H9.99805C10.4963 6.67743 11.7133 5.68098 13.5289 5.68098C17.3057 5.68098 18 8.16808 18 11.3985V18H17.996Z" fill="#7F6F8A"/>
</svg>
