<svg width="18" height="18" viewBox="0 0 18 18" fill="none" xmlns="http://www.w3.org/2000/svg">
<path d="M9.00193 4.38406C6.44802 4.38406 4.38803 6.44407 4.38803 8.99801C4.38803 11.5519 6.44802 13.612 9.00193 13.612C11.5558 13.612 13.6158 11.5519 13.6158 8.99801C13.6158 6.44407 11.5558 4.38406 9.00193 4.38406ZM9.00193 11.9977C7.35153 11.9977 6.00229 10.6524 6.00229 8.99801C6.00229 7.34357 7.34751 5.99834 9.00193 5.99834C10.6564 5.99834 12.0016 7.34357 12.0016 8.99801C12.0016 10.6524 10.6523 11.9977 9.00193 11.9977ZM14.8807 4.19532C14.8807 4.79365 14.3989 5.27151 13.8046 5.27151C13.2062 5.27151 12.7284 4.78964 12.7284 4.19532C12.7284 3.60101 13.2103 3.11914 13.8046 3.11914C14.3989 3.11914 14.8807 3.60101 14.8807 4.19532ZM17.9366 5.28757C17.8683 3.84596 17.5391 2.569 16.483 1.5169C15.4309 0.464808 14.1539 0.135527 12.7123 0.0632462C11.2266 -0.0210821 6.77328 -0.0210821 5.28752 0.0632462C3.84994 0.131511 2.57298 0.460793 1.51688 1.51289C0.460787 2.56498 0.135525 3.84195 0.0632453 5.28356C-0.0210818 6.76934 -0.0210818 11.2227 0.0632453 12.7084C0.131509 14.1501 0.460787 15.427 1.51688 16.4791C2.57298 17.5312 3.84592 17.8605 5.28752 17.9328C6.77328 18.0171 11.2266 18.0171 12.7123 17.9328C14.1539 17.8645 15.4309 17.5352 16.483 16.4791C17.535 15.427 17.8643 14.1501 17.9366 12.7084C18.0209 11.2227 18.0209 6.77335 17.9366 5.28757ZM16.0172 14.3027C15.7039 15.0897 15.0976 15.6961 14.3065 16.0133C13.1219 16.4831 10.311 16.3747 9.00193 16.3747C7.69285 16.3747 4.87793 16.4791 3.69735 16.0133C2.91029 15.7001 2.30394 15.0937 1.98671 14.3027C1.51688 13.118 1.62531 10.3071 1.62531 8.99801C1.62531 7.68891 1.5209 4.87396 1.98671 3.69337C2.29992 2.90631 2.90628 2.29995 3.69735 1.98271C4.88194 1.51289 7.69285 1.62131 9.00193 1.62131C10.311 1.62131 13.1259 1.5169 14.3065 1.98271C15.0936 2.29593 15.6999 2.90229 16.0172 3.69337C16.487 4.87798 16.3786 7.68891 16.3786 8.99801C16.3786 10.3071 16.487 13.1221 16.0172 14.3027Z" fill="#7F6F8A"/>
</svg>
